<?xml version="1.0" encoding="UTF-8" standalone="no"?>
<!-- Created with Inkscape (http://www.inkscape.org/) -->

<svg
   width="68.593742mm"
   height="68.360397mm"
   viewBox="0 0 68.593742 68.360397"
   version="1.1"
   id="svg1"
   xml:space="preserve"
   xmlns:inkscape="http://www.inkscape.org/namespaces/inkscape"
   xmlns:sodipodi="http://sodipodi.sourceforge.net/DTD/sodipodi-0.dtd"
   xmlns="http://www.w3.org/2000/svg"
   xmlns:svg="http://www.w3.org/2000/svg"><sodipodi:namedview
     id="namedview1"
     pagecolor="#ffffff"
     bordercolor="#000000"
     borderopacity="0.25"
     inkscape:showpageshadow="2"
     inkscape:pageopacity="0.0"
     inkscape:pagecheckerboard="0"
     inkscape:deskcolor="#d1d1d1"
     inkscape:document-units="mm" /><defs
     id="defs1" /><g
     inkscape:label="Layer 1"
     inkscape:groupmode="layer"
     id="layer1"
     transform="translate(-576.67402,-23.848066)"><path
       style="fill:#000000"
       d="m 637.89199,91.815251 c -0.53695,-0.23012 -3.06667,-2.642016 -6.15008,-5.60808 l -10.51951,-10.119189 -0.72909,0.47657 c -1.76074,1.15092 -5.81679,2.90537 -8.19633,3.54533 -2.32839,0.62621 -3.04966,0.69574 -7.21713,0.69574 -4.18698,0 -4.88348,-0.0679 -7.27604,-0.70897 -9.91111,-2.65576 -17.7431,-10.52689 -20.4509,-20.55306 -0.60712,-2.24797 -0.67884,-3.002753 -0.67884,-7.14375 0,-4.140997 0.0717,-4.89578 0.67884,-7.14375 2.52846,-9.362143 9.46419,-16.839918 18.48938,-19.934381 6.729,-2.307169 14.87274,-1.88164 21.25845,1.1108 7.70777,3.611983 13.37928,10.383565 15.66262,18.700596 0.66091,2.40737 0.72375,3.038966 0.72305,7.266735 -7e-4,4.166026 -0.0705,4.88955 -0.69652,7.217132 -0.63996,2.379538 -2.39441,6.435588 -3.54533,8.196328 l -0.47658,0.72909 10.50723,10.132039 c 3.39178,3.27066 5.35876,5.57961 5.61844,6.20772 0.80626,1.95025 0.26781,4.58521 -1.21568,5.949 -1.46441,1.34625 -3.95327,1.76956 -5.78598,0.9841 z M 607.98348,70.109592 c 4.74694,-0.77016 9.35664,-3.80267 12.03937,-7.92017 6.67479,-10.244546 1.61598,-23.561109 -10.31279,-27.146874 -2.13314,-0.641217 -6.77693,-0.660112 -9.06455,-0.03688 -8.76727,2.388511 -14.5875,11.002333 -13.3266,19.723112 0.86607,5.990064 4.43791,10.999394 9.73579,13.653954 3.53335,1.77042 7.1439,2.34093 10.92878,1.72686 z"
       id="path1"
       sodipodi:nodetypes="sscssscssssssssscssssssssssss" /></g></svg>
